<?xml version="1.0" encoding="utf-8"?>
<!-- Generator: Adobe Illustrator 26.4.1, SVG Export Plug-In . SVG Version: 6.00 Build 0)  -->
<svg version="1.1" id="Capa_1" xmlns="http://www.w3.org/2000/svg" xmlns:xlink="http://www.w3.org/1999/xlink" x="0px" y="0px"
	 viewBox="0 0 635.04 601.64" style="enable-background:new 0 0 635.04 601.64;" xml:space="preserve">
<style type="text/css">
	.st0{fill:#FFFFFF;}
	.st1{fill:#151515;}
	.st2{fill:#020203;}
	.st3{fill:#030404;}
	.st4{fill:#020303;}
	.st5{fill:#030304;}
	.st6{fill:#020304;}
	.st7{fill:#FDFDFD;}
	.st8{fill:#FCFCFC;}
	.st9{fill:#FEFEFE;}
	.st10{fill:#FCFBFB;}
	.st11{fill:#03A293;}
</style>
<rect class="st0" width="635.04" height="601.64"/>
<path class="st1" d="M-345.46,1651.16c110.36,0,220.72,0,331.09,0.02c2.36,0,5.77-1.21,5.02,3.46c-0.53,3.3,0.39,6.78-5.48,6.78
	c-220.89-0.16-441.78-0.14-662.67-0.19c-1.65,0-4.31,1.15-4.83-1.02c-0.63-2.64-0.08-5.57,0.11-8.36c0.02-0.26,1.09-0.6,1.69-0.65
	c1.16-0.11,2.33-0.04,3.49-0.04C-566.52,1651.15-455.99,1651.15-345.46,1651.16z"/>
<path class="st2" d="M-464.23,1607.63c-0.21-14.75-2.09-29.44-1.94-44.23c0.07-6.32,0.09-12.64-0.11-18.95
	c-0.09-2.81,0.32-4.24,3.68-4c4.47,0.33,8.99,0.27,13.47,0.01c2.82-0.16,3.21,0.98,3.21,3.41c-0.07,28.42-0.08,56.85,0.02,85.27
	c0.01,2.72-0.87,3.57-3.38,3.19c-0.16-0.02-0.33,0-0.5,0c-5.81-0.11-12.75,1.7-17.09-0.87c-4.06-2.41-5.45-9.42-7.88-14.47
	c-7.88-16.41-16.16-32.64-22.36-50.03c0.51,8.22,0.81,16.45,1.58,24.65c1.2,12.78,0.42,25.57,0.75,38.35
	c0.04,1.59-0.31,2.59-2.16,2.38c-0.49-0.06-1,0-1.5-0.01c-5.3-0.08-12.26,1.85-15.44-0.79c-3.29-2.73-0.95-9.95-0.97-15.2
	c-0.1-23.77,0.05-47.54-0.14-71.31c-0.03-3.7,0.8-4.95,4.59-4.59c3.96,0.37,8,0.31,11.97,0.01c3.25-0.24,4.99,0.73,6.38,3.85
	C-482.68,1565.31-471.58,1585.56-464.23,1607.63z"/>
<path class="st2" d="M-191.7,1584.96c11.32,2.1,15.2,6.86,15.51,18.08c0.19,6.77-0.66,13.55,0.83,20.33
	c0.65,2.94,1.76,5.53,3.63,8.95c-7.42,0-14.26,0.01-21.1-0.01c-2.04-0.01-2.09-1.55-2.5-3.05c-1.19-4.41-0.89-8.9-1.04-13.37
	c-0.15-4.65,0.06-9.3-0.78-13.92c-0.98-5.36-3.42-7.81-8.79-8.52c-4.78-0.63-9.58-0.86-14.41-0.98c-3.07-0.08-3.96,0.74-3.9,3.85
	c0.2,10.8-0.01,21.61,0.13,32.41c0.03,2.67-0.47,3.85-3.46,3.67c-4.31-0.27-8.67-0.32-12.97,0.01c-3.36,0.26-3.69-1.15-3.68-3.97
	c0.09-27.92,0.11-55.85-0.01-83.77c-0.01-3.14,0.62-4.3,4.03-4.16c14.28,0.58,28.57-0.46,42.87,0.9
	c22.56,2.16,25.9,20.82,18.47,35.56C-181.36,1581.94-186.3,1583.65-191.7,1584.96z"/>
<path class="st2" d="M-261.09,1589.42c-0.38,5.61,0.51,12.74-0.81,19.85c-2.99,16.17-10.46,23.47-26.68,24.89
	c-7.25,0.63-14.6,0.6-21.81-1.01c-11.78-2.64-19.05-10.61-20.49-23.78c-1.76-16.03-1.82-32.12,0.89-48.09
	c2.21-13.06,11.09-20.4,24.42-21.89c8.04-0.9,15.8-0.65,23.64,1.07c10.33,2.27,16.29,8.77,18.81,18.76
	C-260.74,1568.65-261.06,1578.3-261.09,1589.42z"/>
<path class="st2" d="M-104.34,1622.4c-8.15,14.22-20.48,13.01-32.81,10.69c-11.7-2.2-18.39-9.42-20.01-22.74
	c-2.05-16.95-2.42-34.02,0.84-50.94c2.26-11.78,10.24-17.75,21.39-19.75c8.85-1.59,17.78-1.41,26.62,0.79
	c12.59,3.13,20.03,12.78,20.02,25.95c0,2.37-0.48,3.23-2.97,3.1c-3.98-0.2-8.03-0.43-11.97,0.06c-4.1,0.5-5.25-1.11-5.83-4.85
	c-1.58-10.19-9.11-14.45-19.08-11.5c-5.54,1.63-8.43,5.53-8.96,10.71c-1.53,15.07-1.58,30.21,0.04,45.26
	c0.79,7.39,5.94,11.24,13.33,11.31c7.79,0.07,12.68-4.06,14.4-12.17c2.46-11.64,2.47-11.73-9.4-11.85c-2.71-0.03-3.64-0.58-3.65-3.5
	c-0.06-9.87-0.19-9.87,9.72-9.87c6.82,0,13.65,0.11,20.47-0.06c2.65-0.07,3.36,0.79,3.34,3.39c-0.12,14.3-0.12,28.59,0,42.89
	c0.02,2.41-0.59,3.38-3.03,3.03c-0.98-0.14-1.99-0.02-2.99-0.02C-103.9,1632.34-103.9,1632.34-104.34,1622.4z"/>
<path class="st2" d="M-524.66,1632.34c-6.68,0-12.98-0.06-19.28,0.03c-2.25,0.03-2.63-1.19-3.02-3.04
	c-1.15-5.5-2.73-10.92-3.74-16.45c-0.49-2.65-1.39-3.65-4.15-3.56c-5.82,0.19-11.65,0.14-17.48,0.02c-2.39-0.05-3.26,0.47-3.68,3.18
	c-0.84,5.5-2.72,10.83-3.72,16.32c-0.49,2.68-1.4,3.66-4.14,3.55c-4.82-0.19-9.66-0.22-14.48,0c-3.27,0.15-3.85-0.56-2.9-3.87
	c7.69-26.76,15.15-53.6,22.71-80.4c2.15-7.62,2.21-7.6,10.46-7.6c5.16,0,10.33,0.2,15.48-0.08c2.74-0.15,3.73,0.98,4.35,3.35
	c6.75,25.44,13.56,50.86,20.35,76.28C-526.84,1624.01-525.82,1627.95-524.66,1632.34z"/>
<path class="st2" d="M-664.78,1600.13c9.73,0,9.73,0,10.02,9.48c0.16,5.18,3.47,9.62,7.98,10.67c7.05,1.64,13.61-0.44,15.94-5.06
	c2.37-4.71,1.2-10.71-3.19-14.44c-4.56-3.88-9.98-6.47-15.18-9.38c-5.75-3.22-11.56-6.37-16.67-10.62
	c-8.1-6.71-10.75-15.16-8.17-25.29c2.64-10.37,10.76-14.14,20.06-15.86c9.02-1.67,18.01-1.29,26.91,1.65
	c12.18,4.02,15.59,15.52,15.33,25.13c-0.05,1.88-0.85,2.17-2.42,2.15c-4.82-0.06-9.65-0.1-14.47,0c-3.92,0.08-2.32-3.04-2.59-4.67
	c-1.46-9.02-6.36-12.9-15.09-11.27c-3.44,0.64-6.58,1.89-7.72,5.96c-1.07,3.8,0.14,6.78,2.47,9.53c1.73,2.05,4.08,3.28,6.42,4.57
	c8.38,4.63,16.84,9.12,24.75,14.57c8.59,5.9,12.72,13.9,11.35,24.19c-1.53,11.4-8.52,18.24-19.5,21.18
	c-9.84,2.64-19.71,2.61-29.41-0.38c-12.65-3.89-20.09-17.45-17.18-30.39c0.36-1.6,1.13-1.76,2.39-1.75
	C-670.1,1600.15-667.44,1600.13-664.78,1600.13z"/>
<path class="st3" d="M-70.82,1586.43c0-13.8,0.1-27.6-0.07-41.4c-0.04-3.34,0.67-4.57,4.32-4.52c16.14,0.21,32.29,0.19,48.44,0.01
	c3.33-0.04,4.13,0.94,4.12,4.15c-0.04,9.8,0.1,9.8-9.82,9.8c-7.82,0-15.65,0.08-23.47-0.04c-2.29-0.03-3.23,0.47-3.14,2.99
	c0.19,5.65,0.25,11.31-0.02,16.96c-0.14,2.95,1.2,3.14,3.51,3.12c8.82-0.09,17.65,0.1,26.47-0.11c3.1-0.07,3.89,0.82,3.87,3.89
	c-0.05,9.21,0.1,9.22-8.99,9.22c-7.16,0-14.32,0.11-21.47-0.06c-2.6-0.06-3.43,0.67-3.37,3.31c0.17,7.31,0.18,14.63,0,21.95
	c-0.07,2.84,0.8,3.65,3.62,3.6c9.65-0.16,19.31,0.07,28.96-0.14c3.09-0.07,3.89,0.77,3.87,3.85c-0.07,9.34,0.08,9.34-9.26,9.34
	c-14.48,0-28.97-0.1-43.45,0.08c-3.23,0.04-4.23-0.77-4.19-4.08C-70.72,1614.37-70.82,1600.4-70.82,1586.43z"/>
<path class="st2" d="M-348.04,1579.17c0,10.31,0,20.62,0,30.93c0,15.16-4.76,21.29-19.49,23.79c-5.83,0.99-11.94,1.22-17.81-0.28
	c-12.08-3.07-16.26-8.3-16.77-20.54c-0.41-9.72-0.41-9.72,9.2-9.72c10.65,0,10.69,0,10.87,10.59c0.06,3.3,0.76,6.01,4.61,6.41
	c4,0.42,7.91,0.36,8.83-4.8c0.38-2.1,0.5-4.28,0.5-6.42c0.03-21.45,0.1-42.9-0.08-64.35c-0.03-3.5,0.83-4.63,4.36-4.33
	c3.97,0.33,8,0.29,11.97,0.01c3.05-0.21,3.93,0.64,3.87,3.79C-348.17,1555.89-348.04,1567.53-348.04,1579.17z"/>
<path class="st2" d="M-406.37,1708.27c7.4,1.97,8.81,6.48,8.48,12.33c-0.32,5.78,0.18,11.53,3.03,17.52c-4.25,0-8.13-0.1-12.01,0.03
	c-2.85,0.1-2.73-2.18-2.88-3.71c-0.35-3.63-0.23-7.3-0.32-10.95c-0.2-8.2-2.14-10.1-10.45-10.3c-1-0.02-2.02,0.11-2.99-0.04
	c-3.47-0.55-4.6,0.76-4.4,4.31c0.31,5.63-0.12,11.3,0.16,16.94c0.16,3.15-0.84,3.84-3.87,3.81c-8.47-0.1-8.47,0.05-8.47-8.59
	c0-14.79,0.1-29.57-0.07-44.36c-0.04-3.29,0.48-4.67,4.22-4.49c8.46,0.41,16.98-0.07,25.42,0.54c11.4,0.82,16.63,10.78,11.72,21.14
	C-400.18,1705.34-402.55,1706.79-406.37,1708.27z"/>
<path class="st2" d="M-341.42,1708.29c6.71,1.86,8.75,5.55,8.51,11.08c-0.27,6.26,0.04,12.53,2.92,18.75
	c-3.48,0-6.65-0.33-9.72,0.08c-4.22,0.56-5.17-1.69-5.25-5.07c-0.09-3.65-0.05-7.31-0.21-10.96c-0.29-6.57-2.12-8.4-8.71-8.95
	c-8.94-0.75-8.94-0.75-8.94,8.07c0,4.48-0.12,8.97,0.04,13.45c0.09,2.44-0.4,3.41-3.19,3.46c-9.17,0.17-9.16,0.31-9.16-8.9
	c0-14.78,0.08-29.56-0.07-44.34c-0.03-3.09,0.58-4.34,4.01-4.19c8.46,0.37,16.97-0.03,25.42,0.52
	c11.49,0.75,16.81,10.47,12.03,20.97C-335.09,1705.22-337.41,1706.73-341.42,1708.29z"/>
<path class="st2" d="M-679.87,1709.33c0-8.31,0.12-16.63-0.06-24.94c-0.06-2.81,0.73-3.7,3.58-3.6c5.82,0.22,11.65,0.06,17.48,0.06
	c15.58,0,19.77,3.33,21.81,18.73c1.06,8.06,0.75,16.3-1.05,24.28c-2.12,9.4-7.88,13.92-17.63,14.21c-6.99,0.2-13.99-0.09-20.97,0.11
	c-2.77,0.08-3.33-0.93-3.22-3.42c0.18-4.32,0.05-8.64,0.05-12.97C-679.87,1717.64-679.87,1713.49-679.87,1709.33z"/>
<path class="st4" d="M-135.12,1709.78c-0.22-5.48-0.27-10.96,0.89-16.37c1.41-6.57,5.08-11.01,11.79-12.58
	c6.08-1.42,12.16-1.38,18.25,0.01c6.99,1.6,10.75,6.35,11.82,13.04c1.65,10.36,1.84,20.82,0.11,31.22
	c-1.02,6.15-4.27,10.49-10.57,12.35c-7.01,2.06-13.91,2.03-20.93,0.03c-8.28-2.36-10.59-8.82-11.3-16.25
	C-135.42,1717.45-135.12,1713.6-135.12,1709.78z"/>
<path class="st2" d="M-309.96,1710.09c-0.26-5.48-0.21-10.95,0.86-16.37c1.34-6.82,5.15-11.4,12.02-12.95
	c6.06-1.37,12.18-1.37,18.26,0.12c6.72,1.64,10.53,6.18,11.59,12.7c1.7,10.53,1.88,21.15,0.13,31.72
	c-1.03,6.21-4.47,10.41-10.71,12.23c-6.85,1.99-13.66,2-20.5,0.09c-8.42-2.35-10.91-8.93-11.59-16.58
	C-310.22,1717.42-309.96,1713.74-309.96,1710.09z"/>
<path class="st5" d="M-541.89,1679.76c3.23,0.27,6.9,0.27,10.38,1.61c5.96,2.3,9.87,8.78,9.25,15.04c-0.13,1.26-0.51,1.8-1.71,1.81
	c-2.83,0.01-5.65-0.05-8.48,0.01c-2.44,0.05-1.98-1.8-2.06-3.14c-0.2-3.36-1.73-5.82-5-6.57c-3.35-0.78-6.84-0.61-8.64,2.96
	c-1.77,3.51,0.17,6.19,3.04,7.95c5.19,3.2,10.61,6.01,15.83,9.15c5.59,3.36,9.22,7.89,8.73,14.96c-0.44,6.23-3.29,10.69-9,13.1
	c-7.64,3.22-15.49,3.23-23.18,0.34c-6.63-2.49-10.65-10.68-9.18-17.55c0.26-1.21,0.67-1.74,1.86-1.74c1.5,0.01,3.01,0.12,4.49-0.05
	c4.4-0.49,7.35,0.08,6.59,5.83c-0.46,3.49,1.8,6.1,5.42,6.58c3.63,0.48,7.7,0.79,9.48-3.45c1.5-3.58,0.48-7.01-2.9-9.15
	c-5.59-3.54-11.46-6.63-16.97-10.29c-5.22-3.47-8.78-8.19-7.57-14.94c1.26-7.02,5.76-10.93,13.26-11.95
	C-546.28,1680-544.28,1679.94-541.89,1679.76z"/>
<path class="st6" d="M-505.08,1738.12c5.21-18.59,10.26-36.61,15.29-54.63c0.51-1.83,1.44-2.94,3.5-2.64c0.16,0.02,0.33,0.01,0.5,0
	c13.65-0.61,13.7-0.63,17.27,12.44c3.76,13.77,7.31,27.59,11.19,41.32c0.89,3.15-0.04,3.53-2.85,3.56
	c-9.65,0.1-9.91,0.24-11.76-9.33c-0.91-4.71-3.02-5.91-7.6-5.68c-8.48,0.42-8.76,0.07-10.4,8.67c-0.93,4.86-2.7,7.4-8.04,6.36
	C-500.05,1737.78-502.27,1738.12-505.08,1738.12z"/>
<path class="st3" d="M-51.43,1679.74c3.63,0.33,7.3,0.35,10.74,1.81c5.88,2.5,9.34,8.55,8.6,14.82c-0.14,1.18-0.34,1.85-1.63,1.84
	c-2.99-0.02-5.99,0.07-8.98-0.04c-2.55-0.09-1.47-2.17-1.53-3.39c-0.21-4.28-2.66-6.19-6.61-6.51c-2.97-0.24-5.9,0.4-7.08,3.41
	c-1.25,3.17,0.12,5.83,2.96,7.65c6.24,4,13.21,6.77,19.05,11.42c9.23,7.35,7.5,21.29-3.33,25.91c-7.41,3.16-15.06,3.16-22.67,0.46
	c-4.73-1.68-7.73-5.02-8.93-9.83c-0.75-3.03-1.97-7.21,0.14-8.96c2.45-2.03,6.71-0.79,10.15-0.52c2.53,0.2,1.28,2.64,1.41,4.06
	c0.57,6.3,3.54,8.82,9.82,8.31c2.74-0.22,5.06-1.3,5.78-3.89c0.7-2.49,0.77-5.19-1.45-7.41c-2.51-2.52-5.66-3.98-8.64-5.75
	c-4.12-2.45-8.47-4.5-12.14-7.69c-4.87-4.22-6.68-9.23-4.8-15.54c1.82-6.13,6.64-8.34,12.19-9.54
	C-56.12,1679.87-53.75,1679.93-51.43,1679.74z"/>
<path class="st5" d="M-615.8,1709.47c0-8.31,0.17-16.63-0.08-24.93c-0.1-3.21,0.97-3.81,3.92-3.75c9.15,0.19,18.31,0.22,27.45-0.01
	c3.49-0.09,4.4,0.97,4.52,4.43c0.13,3.97-1.67,4.19-4.73,4.07c-5.15-0.19-10.32,0.07-15.47-0.11c-2.4-0.08-3.03,0.62-3.11,3.05
	c-0.38,10.98-0.47,10.97,10.61,10.97c1.83,0,3.66,0,5.49,0c5.12,0.01,6.44,1.86,5.24,6.86c-0.53,2.23-2.09,1.76-3.48,1.78
	c-4.83,0.05-9.66,0.17-14.47-0.04c-2.69-0.11-3.27,0.86-3.36,3.39c-0.52,14.28-0.59,14.27,13.37,14.27c1.5,0,3,0,4.49,0
	c5.14,0.01,6.46,1.91,5.34,7c-0.45,2.04-1.77,1.63-2.98,1.64c-9.98,0.03-19.97-0.09-29.95,0.08c-2.75,0.05-2.83-1.21-2.81-3.29
	C-615.75,1726.42-615.8,1717.94-615.8,1709.47z"/>
<path class="st6" d="M-244.43,1709.2c0.01-8.14,0.12-16.28-0.06-24.42c-0.07-2.89,0.47-4.03,3.74-4.03
	c8.69,0.01,8.69-0.18,8.69,8.42c0,11.96,0.12,23.93-0.08,35.88c-0.06,3.36,0.66,4.71,4.31,4.49c5.47-0.32,10.98,0.12,16.46-0.14
	c4.48-0.22,2.88,2.87,3.18,5.01c0.36,2.53-0.13,3.85-3.29,3.78c-9.81-0.22-19.63-0.18-29.44-0.02c-2.8,0.05-3.65-0.71-3.59-3.56
	C-244.31,1726.15-244.43,1717.68-244.43,1709.2z"/>
<path class="st6" d="M-189.2,1709.35c0-8.14,0.14-16.28-0.07-24.42c-0.08-3.12,0.61-4.24,4.01-4.18c8.31,0.16,8.31-0.04,8.31,8.35
	c0,11.63,0.28,23.27-0.14,34.88c-0.17,4.85,1.51,5.86,5.85,5.56c4.97-0.34,9.98,0.13,14.96-0.14c4.14-0.23,2.95,2.57,3.01,4.63
	c0.06,1.97,0.9,4.26-2.86,4.17c-9.97-0.24-19.96-0.2-29.93-0.01c-2.83,0.05-3.22-1.02-3.19-3.43
	C-189.13,1726.29-189.2,1717.82-189.2,1709.35z"/>
<path class="st0" d="M-224.17,1565.92c0.32-3.21-1.72-8.56,0.77-10.68c2.35-2,7.54-0.66,11.48-0.78c0.66-0.02,1.33,0,1.99,0
	c10.07,0.02,13.33,2.83,13.41,11.57c0.08,8.82-4.69,13.38-14.07,13.41c-3.16,0.01-6.34-0.27-9.46,0.07c-3.7,0.41-4.53-1.1-4.19-4.43
	C-223.94,1572.3-224.17,1569.45-224.17,1565.92z"/>
<path class="st0" d="M-282.02,1587.33c0,6.31,0.15,12.63-0.04,18.94c-0.25,8.4-4.71,13.64-11.62,14.09
	c-10.38,0.68-15.31-2.4-16.51-11.94c-1.78-14.18-1.55-28.53-0.19-42.72c0.93-9.7,6.46-13.74,15.25-13.19
	c7.57,0.47,12.71,6.35,13.04,15.38c0.23,6.47,0.05,12.96,0.05,19.44C-282.04,1587.33-282.03,1587.33-282.02,1587.33z"/>
<path class="st7" d="M-563.37,1552.5c1.98,7.62,2.39,15.51,4.42,23.11c1.52,5.7,2.16,11.63,3.62,17.34
	c0.67,2.63-0.26,2.81-2.28,2.76c-4.48-0.1-10.51,1.63-13.05-0.62c-2.9-2.57,0.9-8.06,1.73-12.27
	C-566.97,1572.77-563.99,1562.89-563.37,1552.5z"/>
<path class="st7" d="M-427.84,1697.23c0-8.05,0-8.05,9.02-8.01c7.31,0.03,10.23,4.08,7.89,10.85c-0.69,2.01-1.87,3.46-3.9,4.1
	c-1.56,0.49-3.09,0.95-4.8,0.97C-427.84,1705.27-427.84,1705.33-427.84,1697.23z"/>
<path class="st8" d="M-362.83,1697.13c0-7.91,0-7.91,8.1-7.9c7.03,0.01,9.3,1.7,9.47,7.08c0.18,5.54-3.14,8.62-9.49,8.81
	C-362.83,1705.34-362.83,1705.34-362.83,1697.13z"/>
<path class="st9" d="M-667.61,1709.2c0-5.63,0.1-11.27-0.05-16.89c-0.06-2.36,0.67-3.05,3.06-3.15c8.96-0.37,12.42,1.07,13.73,6.33
	c0.48,1.91,0.88,3.89,0.94,5.85c0.21,6.94,0.61,13.89-0.8,20.77c-1.17,5.71-11.33,10.22-16.06,7.12c-1.24-0.81-0.79-2.06-0.8-3.14
	C-667.63,1720.46-667.61,1714.83-667.61,1709.2z"/>
<path class="st1" d="M-470.9,2355.32c110.36,0,220.72,0,331.09,0.02c2.36,0,5.77-1.21,5.02,3.46c-0.53,3.3,0.39,6.78-5.48,6.78
	c-220.89-0.16-441.78-0.14-662.67-0.19c-1.65,0-4.31,1.15-4.83-1.02c-0.63-2.64-0.08-5.57,0.11-8.36c0.02-0.26,1.09-0.6,1.69-0.65
	c1.16-0.11,2.33-0.04,3.49-0.04C-691.95,2355.31-581.42,2355.31-470.9,2355.32z"/>
<path class="st2" d="M-790.21,2304.29c9.73,0,9.73,0,10.02,9.48c0.16,5.18,3.47,9.62,7.98,10.67c7.05,1.64,13.61-0.44,15.94-5.06
	c2.37-4.71,1.2-10.71-3.19-14.44c-4.56-3.88-9.98-6.47-15.18-9.38c-5.75-3.22-11.56-6.37-16.67-10.62
	c-8.1-6.71-10.75-15.16-8.17-25.29c2.64-10.37,10.76-14.14,20.06-15.86c9.02-1.67,18.01-1.29,26.91,1.65
	c12.18,4.02,15.59,15.52,15.33,25.13c-0.05,1.88-0.85,2.17-2.42,2.15c-4.82-0.06-9.65-0.1-14.47,0c-3.92,0.08-2.32-3.04-2.59-4.67
	c-1.46-9.02-6.36-12.9-15.09-11.27c-3.44,0.64-6.58,1.89-7.72,5.96c-1.07,3.8,0.14,6.78,2.47,9.53c1.73,2.05,4.08,3.28,6.42,4.57
	c8.38,4.63,16.84,9.12,24.75,14.57c8.59,5.9,12.72,13.9,11.35,24.19c-1.53,11.4-8.52,18.24-19.5,21.18
	c-9.84,2.64-19.71,2.61-29.41-0.38c-12.65-3.89-20.09-17.45-17.18-30.39c0.36-1.6,1.13-1.76,2.39-1.75
	C-795.53,2304.31-792.87,2304.29-790.21,2304.29z"/>
<path class="st2" d="M-805.3,2413.49c0-8.31,0.12-16.63-0.06-24.94c-0.06-2.81,0.73-3.7,3.58-3.6c5.82,0.22,11.65,0.06,17.48,0.06
	c15.58,0,19.77,3.33,21.81,18.73c1.06,8.06,0.75,16.3-1.05,24.28c-2.12,9.4-7.88,13.92-17.63,14.21c-6.99,0.2-13.99-0.09-20.97,0.11
	c-2.77,0.08-3.33-0.93-3.22-3.42c0.19-4.32,0.05-8.64,0.05-12.97C-805.3,2421.8-805.3,2417.65-805.3,2413.49z"/>
<path class="st5" d="M-741.23,2413.63c0-8.31,0.17-16.63-0.08-24.93c-0.1-3.21,0.97-3.81,3.92-3.75c9.15,0.19,18.31,0.22,27.45-0.01
	c3.49-0.09,4.4,0.97,4.52,4.43c0.13,3.97-1.67,4.19-4.73,4.07c-5.15-0.19-10.32,0.07-15.47-0.1c-2.4-0.08-3.03,0.62-3.11,3.05
	c-0.38,10.98-0.47,10.97,10.61,10.97c1.83,0,3.66,0,5.49,0c5.12,0.01,6.44,1.86,5.24,6.86c-0.53,2.23-2.09,1.76-3.48,1.78
	c-4.83,0.05-9.66,0.17-14.47-0.04c-2.69-0.11-3.27,0.86-3.36,3.39c-0.52,14.28-0.59,14.27,13.37,14.27c1.5,0,3,0,4.49,0
	c5.14,0.01,6.46,1.91,5.34,7c-0.45,2.04-1.77,1.63-2.98,1.64c-9.98,0.03-19.97-0.09-29.95,0.09c-2.75,0.05-2.83-1.21-2.81-3.29
	C-741.18,2430.58-741.23,2422.1-741.23,2413.63z"/>
<path class="st0" d="M-1056.25,2191.5c16.93,0.45,33.73,2.9,49.79,9.49c2.87,1.18,3.72,2.67,2.82,5.7
	c-3.17,10.63-6.24,21.3-9.11,32.01c-0.83,3.09-2.86,2.65-4.56,1.85c-11.13-5.21-22.92-7.6-35.07-8.47
	c-11.59-0.83-23.09-0.6-32.59,7.33c-10.1,8.43-8.35,21.53,1.33,28.93c9.38,7.17,20.47,10.81,31.21,15.12
	c15.72,6.3,31.37,12.67,43.15,25.55c14.04,15.36,17.97,33.25,14.03,53.49c-3.15,16.19-11.51,28.71-24.72,38.12
	c-10.99,7.83-23.52,12.03-36.71,14.48c-20.8,3.87-41.45,2.22-61.9-2.14c-7.57-1.62-14.84-4.7-22.22-7.18
	c-2.46-0.82-3.19-2.53-2.55-5.1c2.78-11.27,5.49-22.56,8.15-33.87c0.75-3.17,2.63-2.96,4.86-1.86c9.43,4.64,19.36,7.79,29.67,9.76
	c12.02,2.29,24.09,3.03,36.18,0.63c15.56-3.08,24.28-17.02,18.81-30.14c-3.5-8.41-10.98-12.6-18.68-16.29
	c-11.82-5.67-24.59-9.11-36.25-15.12c-17.19-8.86-32.33-20.14-37.97-39.68c-7.34-25.42,1.51-52.13,25.16-67.79
	C-1096.06,2194.82-1076.71,2191.87-1056.25,2191.5z"/>
<path class="st9" d="M-793.04,2413.36c0-5.63,0.1-11.27-0.05-16.89c-0.06-2.36,0.67-3.05,3.06-3.15c8.96-0.37,12.42,1.07,13.73,6.33
	c0.48,1.91,0.88,3.89,0.94,5.85c0.21,6.94,0.61,13.89-0.8,20.77c-1.17,5.71-11.33,10.22-16.06,7.12c-1.24-0.81-0.79-2.06-0.8-3.14
	C-793.06,2424.62-793.04,2418.99-793.04,2413.36z"/>
<path class="st0" d="M-122.25,1709.03c0-3.81-0.11-7.63,0.03-11.44c0.18-5.35,3.15-8.82,7.76-9.35c4.81-0.55,8.47,1.89,9.41,7.37
	c1.58,9.17,1.29,18.5,0.19,27.69c-0.65,5.49-3.9,7.3-9.62,6.86c-4.48-0.34-7.34-3.17-7.66-8.19c-0.27-4.29-0.06-8.62-0.06-12.93
	C-122.22,1709.03-122.24,1709.03-122.25,1709.03z"/>
<path class="st0" d="M-297.09,1709.37c0-3.81-0.11-7.63,0.02-11.44c0.2-5.73,3.14-9.21,7.95-9.68c4.91-0.48,8.74,2.24,9.48,7.97
	c1.15,8.88,0.98,17.88,0.1,26.77c-0.54,5.47-3.83,7.48-9.43,7.19c-4.73-0.24-7.66-3.08-8.03-8.38c-0.29-4.13-0.06-8.29-0.06-12.43
	C-297.06,1709.37-297.07,1709.37-297.09,1709.37z"/>
<path class="st10" d="M-486.21,1715.16c2.22-9.5,4.37-18.09,5.77-26.88c0.71,7.86,2.62,15.47,4.4,23.1
	c0.53,2.27,0.58,4.25-2.87,3.83C-481.17,1714.94-483.5,1715.16-486.21,1715.16z"/>
<path class="st11" d="M509.02,280.18c-0.46-4.48-1.07-8.95-1.84-13.39c-0.76-4.42-1.67-8.81-2.74-13.16
	c-1.07-4.33-2.29-8.63-3.67-12.87c-1.38-4.25-2.93-8.44-4.62-12.58c-1.71-4.16-3.58-8.26-5.6-12.28c-1.5-2.98-3.06-5.95-4.68-8.85
	c-0.4-0.72-0.81-1.43-1.24-2.13c-0.04-0.06-0.2-0.36-0.39-0.62h0c-0.01-0.01-0.58-0.87-0.58-0.87c0.06,0.2,0.04,0.87,0.04,0.87h0
	c-0.06,1.94,0.13,5.8,0.11,7.55c-0.41,28.59,1.35,57.21-0.94,85.75c-1.27,15.78-5.84,30.67-16.24,43.1
	c-11.72,14.01-27.73,19.39-45.15,21.53c-15.35,1.89-30.5,0.52-45.59-2.75c-3.93-0.85-5.53-1.93-4.93-6.03
	c1.45-9.84,2.88-19.69,3.87-29.57c0.41-4.11,1.83-5.23,5.7-4.15c7.75,2.16,15.71,2.7,23.71,2.43c11.68-0.4,21.03-4.93,26.01-15.97
	c2.8-6.2,4.4-12.93,4.42-19.77c0.18-45.07,0.18-90.13,0.34-135.2c0.01-1.39-0.33-2.47-0.87-3.38c-0.79-1.33-2.04-2.29-3.45-3.28
	c-43.78-30.59-91.9-42.47-144.89-33.85c-39.4,6.41-73.5,23.58-102.05,51.17c-31.42,30.36-50.5,67.37-56.71,110.8
	c-4.29,30-2.04,59.14,7.22,87.19c10.33,33.06,28.99,61.58,55.65,85.38c22.64,20.21,48.7,34.24,78.13,42.01
	c23.39,6.17,46.97,7.88,71.03,5.2c24.39-2.71,47.33-9.64,68.82-21.46c1.54-0.83,3.08-1.66,4.62-2.49c0.53-0.38,1.42-0.87,1.08-1.27
	c17.26-9.94,32.96-22.7,47.05-38.24c3.71-4.1,7.22-8.31,10.52-12.63c1.15-0.8,2.03-1.96,2.92-3.26
	c5.52-8.04,10.42-16.22,14.68-24.54c0.71-1.38,1.4-2.77,2.08-4.17c0.14-0.29,0.28-0.57,0.42-0.86c0.43-0.89,0.84-1.79,1.25-2.69
	c0.37-0.8,0.73-1.59,1.09-2.4c0.22-0.5,0.44-1.01,0.66-1.52c6.7-15.41,11.27-31.3,13.64-47.69
	C510.38,313.06,510.73,296.74,509.02,280.18z M357.74,308.41c-3.15,16.19-11.51,28.71-24.72,38.12
	c-10.34,7.36-22.04,11.52-34.36,14.03c-0.78,0.16-1.56,0.31-2.34,0.46c-12.75,2.37-25.44,2.67-38.07,1.54
	c-7.97-0.71-15.91-1.99-23.83-3.68c-7.57-1.62-14.84-4.7-22.22-7.17c-2.46-0.82-3.19-2.53-2.55-5.1
	c2.78-11.27,5.49-22.56,8.15-33.87c0.75-3.17,2.63-2.96,4.86-1.86c9.43,4.64,19.36,7.79,29.67,9.76
	c12.02,2.29,24.09,3.03,36.18,0.63c15.56-3.08,24.28-17.02,18.81-30.14c-3.5-8.41-10.98-12.6-18.68-16.29
	c-11.82-5.67-24.59-9.11-36.25-15.12c-17.19-8.86-32.33-20.14-37.97-39.68c-7.34-25.42,1.51-52.13,25.16-67.79
	c17.39-11.51,36.74-14.46,57.19-14.83c16.93,0.45,33.73,2.9,49.79,9.49c2.87,1.18,3.72,2.67,2.82,5.7
	c-3.17,10.63-6.24,21.3-9.11,32.01c-0.83,3.09-2.86,2.65-4.56,1.85c-11.13-5.21-22.92-7.6-35.07-8.47
	c-11.59-0.83-23.09-0.6-32.59,7.33c-10.1,8.43-8.35,21.53,1.33,28.93c9.38,7.17,20.47,10.81,31.21,15.12
	c15.72,6.3,31.37,12.67,43.15,25.55C357.74,270.28,361.67,288.18,357.74,308.41z"/>
</svg>
